<svg xmlns="http://www.w3.org/2000/svg" width="512" height="512" viewBox="0 0 512 512">
  <rect width="512" height="512" fill="#ffffff"/>

  <!-- Mark only, scaled to fill a square icon -->
  <g transform="translate(28,-238)">
    <g transform="translate(-10,60)">
      <!-- orange accent sliver peeking under the teal ring -->
      <path d="M 118 610 A 152 152 0 0 0 300 622" fill="none" stroke="#F2622E" stroke-width="30" stroke-linecap="round"/>

      <!-- teal circular arrow: open on the right side -->
      <path d="M 340 380 A 145 145 0 1 0 348 545" fill="none" stroke="#1FA9B8" stroke-width="52" stroke-linecap="round"/>
      <!-- arrowhead pointing up-right at the open end -->
      <g transform="translate(360,540) rotate(-52)">
        <polygon points="-8,-42 62,0 -8,42" fill="#1FA9B8"/>
      </g>

      <!-- steam wisps -->
      <path d="M 342 300 C 368 272 348 246 370 216" fill="none" stroke="#F9A03F" stroke-width="24" stroke-linecap="round"/>
      <path d="M 296 282 C 314 262 300 242 314 220" fill="none" stroke="#F2622E" stroke-width="18" stroke-linecap="round"/>

      <!-- pot lid -->
      <ellipse cx="272" cy="330" rx="92" ry="30" fill="#F2622E"/>
      <circle cx="272" cy="298" r="17" fill="#F2622E"/>
      <!-- pot body (trapezoid, rounded) -->
      <path d="M 184 346 L 360 346 L 338 478 Q 336 492 322 492 L 222 492 Q 208 492 206 478 Z" fill="#F2622E"/>

      <!-- happy face -->
      <circle cx="237" cy="403" r="13" fill="#ffffff"/>
      <circle cx="307" cy="403" r="13" fill="#ffffff"/>
      <path d="M 231 438 Q 272 472 313 438" fill="none" stroke="#ffffff" stroke-width="13" stroke-linecap="round"/>
    </g>
  </g>
</svg>
